<?xml version="1.0" standalone="no"?><!DOCTYPE svg PUBLIC "-//W3C//DTD SVG 1.1//EN" "http://www.w3.org/Graphics/SVG/1.1/DTD/svg11.dtd"><svg t="1737683900630" class="icon" viewBox="0 0 1024 1024" version="1.1" xmlns="http://www.w3.org/2000/svg" p-id="12059" xmlns:xlink="http://www.w3.org/1999/xlink" width="56" height="56"><path d="M512 0c282.760533 0 512 229.239467 512 512 0 282.760533-229.239467 512-512 512-282.760533 0-512-229.239467-512-512C0 229.239467 229.239467 0 512 0z m82.056533 642.321067c-4.881067 1.774933-9.284267 3.754667-13.858133 4.949333-20.992 5.7344-41.8816 2.491733-62.6688-0.853333-4.334933-0.750933-6.656 0-8.942933 4.096a2933.179733 2933.179733 0 0 1-38.775467 66.833066 20.616533 20.616533 0 0 1-10.376533 8.157867c-15.121067 4.7104-28.603733-3.4816-33.0752-19.182933-0.887467-3.037867-1.501867-6.144-2.321067-9.216a36.522667 36.522667 0 0 0-0.8192 26.282666c4.983467 14.062933 16.5888 19.456 29.866667 23.415467-13.858133 23.9616-27.306667 47.3088-40.823467 70.9632 11.434667 2.730667 13.789867 1.9456 20.411733-5.461333 10.581333-11.844267 21.162667-23.722667 32.017067-35.1232 6.075733-6.144 12.4928-12.014933 19.217067-17.476267 2.8672-2.2528 6.656-3.515733 11.605333-6.0416-0.8192 22.766933-1.501867 43.690667-2.321067 65.2288 3.925333 0 7.2704-0.4096 10.410667 0.1024 5.597867 0.9216 7.338667-1.809067 8.8064-6.997333 3.447467-12.629333 6.9632-25.224533 11.844267-37.205334 3.3792-8.226133 8.192-16.042667 13.6192-22.9376 5.563733-7.168 13.9264-6.212267 18.875733 1.467734 3.413333 5.0176 6.007467 10.5472 7.68 16.384 3.9936 14.7456 7.168 29.764267 10.820267 44.578133 0.375467 1.7408 2.218667 4.096 3.618133 4.3008 4.9152 0.512 10.001067 0.136533 15.2576 0.136533 0-59.460267 0-117.896533-0.068267-176.401066zM670.4128 263.509333a864.5632 864.5632 0 0 0-87.586133 2.628267c-24.4736 1.8432-48.810667 5.256533-72.840534 10.308267-51.712 10.990933-100.864 30.242133-148.616533 52.9408-30.5152 14.5408-60.416 30.242133-84.718933 55.022933-6.8608 7.0656-13.277867 14.813867-19.933867 22.152533-10.8544-6.4512-21.6064-13.175467-32.631467-19.114666a123.528533 123.528533 0 0 0-21.7088-9.386667c-10.3424-3.208533-21.128533 2.048-25.873066 12.1856a105.813333 105.813333 0 0 0-6.485334 18.363733c-8.738133 33.5872-19.3536 66.2528-36.795733 96.426667-7.031467 12.1856-11.537067 26.282667-15.0528 40.072533-6.144 24.302933 13.6192 44.305067 37.307733 38.638934a155.7504 155.7504 0 0 0 55.773867-26.5216c22.050133-16.213333 32.768-38.365867 31.709867-66.1504-0.580267-15.018667-2.1504-29.969067-3.2768-44.8512 5.597867 1.706667 8.226133 6.007467 9.898666 12.663466 2.184533 8.465067 5.495467 16.554667 9.898667 24.098134 10.922667 19.6608 26.624 35.328 43.281067 49.834666 53.486933 46.557867 115.5072 75.6736 183.0912 92.637867 40.379733 10.103467 81.066667 11.844267 121.719466-0.341333 63.726933-19.114667 114.244267-57.275733 153.6-111.581867 5.870933-8.123733 11.1616-16.725333 16.725334-25.088-3.754667 0.648533-6.4512 2.218667-9.181867 3.447467a88.917333 88.917333 0 0 1-8.533333 3.447466c-50.7904 17.3056-102.263467 17.954133-153.975467 5.666134-43.3152-10.274133-80.042667-32.768-110.216533-66.321067a22.6304 22.6304 0 0 1-5.768534-9.6256c-0.546133-2.901333 0.682667-7.748267 2.730667-9.216 1.979733-1.365333 6.485333-0.238933 9.284267 1.160533 2.6624 1.297067 4.437333 4.334933 6.5536 6.587734 20.821333 21.777067 43.656533 40.789333 71.953066 51.268266a267.093333 267.093333 0 0 0 146.500267 12.1856c17.7152-3.447467 35.157333-8.362667 50.756267-17.7152 6.178133-3.720533 13.312-8.8064 16.008533-15.1552 10.24-24.029867 20.753067-48.401067 23.552-74.752 1.706667-15.598933 2.56-31.812267 0.238933-47.104-3.3792-21.9136-18.978133-35.2256-37.649066-44.885333-34.577067-17.851733-71.850667-23.04-109.738667-23.893333z m-164.522667 69.563734c10.990933-0.1024 20.2752 8.430933 20.343467 18.7392 0 10.3424-8.874667 18.602667-20.241067 18.602666-11.3664-0.068267-20.138667-8.260267-20.138666-18.602666 0.034133-10.615467 8.635733-18.705067 20.0704-18.773334z m225.621334-52.770134c14.882133 0.068267 29.422933 1.877333 43.042133 8.328534 5.461333 2.628267 11.5712 5.393067 11.844267 13.073066a16.2816 16.2816 0 0 1-10.888534 16.213334 117.179733 117.179733 0 0 1-28.910933 8.055466c-19.217067 2.218667-38.570667 3.618133-57.5488-1.706666a55.364267 55.364267 0 0 1-12.151467-4.881067c-9.352533-5.461333-10.3424-15.633067-1.911466-22.7328 9.5232-8.021333 20.992-12.0832 32.9728-14.062933 7.748267-1.2288 15.701333-1.536 23.552-2.286934z" fill="#EB4A4A" p-id="12060"></path></svg>