<?xml version="1.0" standalone="no"?><!DOCTYPE svg PUBLIC "-//W3C//DTD SVG 1.1//EN" "http://www.w3.org/Graphics/SVG/1.1/DTD/svg11.dtd"><svg t="1737683864920" class="icon" viewBox="0 0 1024 1024" version="1.1" xmlns="http://www.w3.org/2000/svg" p-id="10887" xmlns:xlink="http://www.w3.org/1999/xlink" width="56" height="56"><path d="M466.123572 711.081558 321.994294 366.04573 177.102897 719.096583 746.240256 719.86177 606.175265 366.04573Z" fill="#C62A33" p-id="10888"></path><path d="M891.327041 660.025798l110.552104 0c2.409111-7.98229 4.631017-16.046418 6.657534-24.186246L881.833814 635.839552 891.327041 660.025798z" fill="#C62A33" p-id="10889"></path><path d="M872.843892 612.921798l140.837339 0c1.770773-8.833407 3.310354-17.746605 4.620787-26.73755L862.355309 586.184248 872.843892 612.921798z" fill="#C62A33" p-id="10890"></path><path d="M1023.237882 490.693435l-198.345015 0 9.989371 25.463944 188.762789 0c0.013299-1.441375 0.02762-2.881726 0.02762-4.32617C1023.67367 504.751185 1023.521247 497.704919 1023.237882 490.693435z" fill="#C62A33" p-id="10891"></path><path d="M916.850318 725.08816 812.446306 873.029051l-606.059668-0.249606L98.163852 718.721151 366.684068 63.530965l139.796971 347.078713 150.633367-347.588156 120.875988 308.116587 226.099405 0C942.962829 156.873526 745.726721 0 511.830186 0 229.154014 0 0 229.154014 0 511.831209c0 282.662873 229.154014 511.815864 511.831209 511.815864 222.671409 0 412.121638-142.18153 482.531101-340.702498l-94.045347 0L916.850318 725.08816z" fill="#C62A33" p-id="10892"></path><path d="M853.363341 563.266494l167.749818 0c0.800991-8.010933 1.4158-16.075061 1.841359-24.190338L843.874206 539.076156 853.363341 563.266494z" fill="#C62A33" p-id="10893"></path><path d="M796.422394 418.120376l218.681798 0c-1.497638-8.089702-3.182482-16.111888-5.055552-24.063489L786.983385 394.056887 796.422394 418.120376z" fill="#C62A33" p-id="10894"></path><path d="M815.902945 467.77568l205.893562 0c-0.76621-8.980715-1.761566-17.89596-2.984024-26.73755L805.414362 441.03813 815.902945 467.77568z" fill="#C62A33" p-id="10895"></path></svg>